<?xml version="1.0" encoding="utf-8"?>
<!-- Generator: Adobe Illustrator 23.0.1, SVG Export Plug-In . SVG Version: 6.00 Build 0)  -->
<svg version="1.1" id="图层_1" xmlns="http://www.w3.org/2000/svg" xmlns:xlink="http://www.w3.org/1999/xlink" x="0px" y="0px"
	 viewBox="0 0 100 100" style="enable-background:new 0 0 100 100;" xml:space="preserve">
<style type="text/css">
	.st0{fill:#FFFFFF;}
</style>
<g>
	<g>
		<path class="st0" d="M47.2,89.5c-22,0-39.9-17.6-39.9-39.3c0-21.7,17.8-39.3,39.9-39.3c15.6,0,29.1,8.8,35.6,21.7
			C76.2,17.7,61.2,7.3,43.7,7.3C20,7.3,0.8,26.3,0.8,49.8c0,23.5,19.2,42.5,42.8,42.5c14.1,0,26.7-6.8,34.5-17.3
			C70.8,83.8,59.7,89.5,47.2,89.5z"/>
	</g>
	<path class="st0" d="M22.2,29.8c0,0,12.9-2,18.4-1.2c5.6,0.9,11.8,5.3,9.2,12.1c-2.6,6.8-14.1,30.5-14.1,30.5l7.4,0.2L56.5,42
		c0,0,3.2-5.9-0.5-10.8c-3.7-4.9-9.9-10.1-20.8-7.1c-11,3-13.2,5.5-13.2,5.5L22.2,29.8z"/>
	<path class="st0" d="M63.1,36.1c0,0,2.5-3.6,2.8-3.9c1.3-1.4,2.8-2.5,4.6-3.1c4.4-1.5,9.1-1.1,13.4,0.7c1.7,0.7,3.1,1.5,5,1.6
		c4.2,0.4,8.4-1.3,11.2-4.5c-0.9,2.7-2.2,4.9-4.7,6.5c-2.9,1.9-6.6,2.7-10,2c-3.6-0.8-6.9-2.4-10.5-2.6c-3.2-0.2-5.6,1.2-8.4,2.6
		C65.5,35.8,64.1,36.5,63.1,36.1z"/>
	<path class="st0" d="M62.5,38.7c-1,1.8-13.9,32.5-13.9,32.5s0,0.6,2.2,0.7C53,71.9,80,72,80,72l2.3-4.4L59,67c0,0-1.8-0.3-0.3-4.9
		c1.3-4,11-25.1,11-25.1S65.1,37.4,62.5,38.7z"/>
	<polygon class="st0" points="68.5,47.6 66.2,53.6 84.5,54.1 88.1,48 	"/>
	<path class="st0" d="M35.1,34.3L17,69l6.3,0.2l6.5-12.3c0,0-1.7-2-2.1-4c-0.5-3,1.6-7.8,6.8-7.7c1.5,0,1.9,0.4,1.9,0.4l5.1-10
		L35.1,34.3z"/>
	<path class="st0" d="M38.9,51.7c0,2.5-2,4.6-4.6,4.6c-2.5,0-4.6-2-4.6-4.6s2-4.6,4.6-4.6C36.8,47.1,38.9,49.1,38.9,51.7z"/>
	<path class="st0" d="M47.3,78c1.6,1.3,14.9,15,35.1,6.4c-6.5,1.7-10.1,2.6-17.5,1.4C54.5,84.1,47.3,78,47.3,78z"/>
</g>
</svg>
