<?xml version="1.0" encoding="utf-8"?>
<!-- Generator: Adobe Illustrator 23.0.1, SVG Export Plug-In . SVG Version: 6.00 Build 0)  -->
<svg version="1.1" id="图层_1" xmlns="http://www.w3.org/2000/svg" xmlns:xlink="http://www.w3.org/1999/xlink" x="0px" y="0px"
	 viewBox="0 0 50.8 43" style="enable-background:new 0 0 50.8 43;" xml:space="preserve">
<style type="text/css">
	.st0{fill:#26A8E0;}
	.st1{fill:#8CC442;}
	.st2{fill:#808183;}
</style>
<title>调查进度</title>
<path class="st0" d="M23.5,41.6c-11,0.1-20.1-8.8-20.2-19.8c0,0,0,0,0,0C3.5,10.6,12.7,1.7,23.9,1.9c7.4,0.1,14.2,4.3,17.6,11
	C36.6,1.9,23.8-3,12.8,1.9C5.1,5.4,0.1,13,0,21.5c0.1,12,9.9,21.6,21.9,21.5c6.8-0.1,13.1-3.3,17.2-8.7
	C35.3,38.9,29.5,41.6,23.5,41.6z"/>
<path class="st1" d="M10.8,11.4c0,0,6.5-1,9.3-0.6s6,2.7,4.7,6.1s-7.1,15.5-7.1,15.5l3.7,0.1l6.8-14.9c0,0,1.6-3-0.2-5.4
	s-5-5.1-10.5-3.6s-6.7,2.8-6.7,2.8L10.8,11.4z"/>
<path class="st1" d="M31.5,14.6c0,0,1.2-1.8,1.4-2c0.6-0.7,1.4-1.3,2.3-1.6c2.2-0.7,4.6-0.6,6.8,0.3c0.8,0.4,1.6,0.7,2.5,0.8
	c2.1,0.2,4.2-0.6,5.6-2.2c-0.4,1.3-1.2,2.5-2.4,3.3c-1.5,1-3.3,1.3-5.1,1c-1.8-0.4-3.5-1.2-5.3-1.3c-1.6-0.1-2.8,0.6-4.2,1.3
	C32.6,14.5,32.1,14.7,31.5,14.6z"/>
<path class="st0" d="M31.2,15.9c-0.5,0.9-7,16.4-7,16.4s0,0.3,1.1,0.3s14.8,0.1,14.8,0.1l1.2-2.2l-11.8-0.3c0,0-0.9-0.1-0.1-2.5
	c0.7-2,5.5-12.7,5.5-12.7C33.6,15.2,32.4,15.4,31.2,15.9z"/>
<polygon class="st0" points="34.2,20.4 33,23.5 42.3,23.7 44.1,20.6 "/>
<path class="st0" d="M17.4,13.6L8.2,31.2l3.2,0.1l3.3-6.2c-0.5-0.6-0.8-1.3-1-2c-0.3-1.9,1-3.6,2.9-3.9c0.2,0,0.4,0,0.6,0
	c0.8,0,1,0.2,1,0.2l2.6-5.1L17.4,13.6z"/>
<path class="st0" d="M19.2,22.5c0,1.3-1,2.3-2.3,2.3c-1.3,0-2.3-1-2.3-2.3c0-1.3,1-2.3,2.3-2.3c0,0,0,0,0,0
	C18.2,20.2,19.2,21.2,19.2,22.5z"/>
<path class="st2" d="M23.5,35.8c4.7,4.7,11.7,5.9,17.8,3.2c-3.3,0.9-5.1,1.3-8.9,0.7C29.2,39.1,26.1,37.8,23.5,35.8z"/>
</svg>
