<?xml version="1.0" encoding="utf-8"?>
<!-- Generator: Adobe Illustrator 21.1.0, SVG Export Plug-In . SVG Version: 6.00 Build 0)  -->
<svg version="1.1" id="图层_1" xmlns="http://www.w3.org/2000/svg" xmlns:xlink="http://www.w3.org/1999/xlink" x="0px" y="0px"
	 viewBox="0 0 230.9 20.3" style="enable-background:new 0 0 230.9 20.3;" xml:space="preserve">
<style type="text/css">
	.st0{fill:#26A8E0;}
	.st1{fill:#8CC442;}
	.st2{fill:#808183;}
</style>
<title>国家义务教育质量监测问卷调查管理系统</title>
<path class="st0" d="M11.1,19.6c-5.2,0-9.5-4.2-9.5-9.4C1.7,4.9,6,0.7,11.2,0.8c3.5,0,6.8,2,8.4,5.2c-1.6-3.7-5.3-6-9.3-6
	C4.6,0,0,4.5,0,10.2c0.1,5.6,4.7,10.2,10.3,10.1c3.2,0,6.2-1.6,8.1-4.1C16.6,18.4,13.9,19.6,11.1,19.6z"/>
<path class="st1" d="M5.1,5.4C6.6,5.1,8,5,9.5,5.1c1.3,0.2,2.8,1.3,2.2,2.9s-3.4,7.3-3.4,7.3h1.8l3.2-7c0.5-0.8,0.4-1.8-0.1-2.6
	c-1.1-1.6-3.1-2.3-5-1.7C5.6,4.8,5.1,5.4,5.1,5.4z"/>
<path class="st1" d="M14.9,6.9c0.2-0.3,0.4-0.6,0.7-0.9c0.3-0.3,0.7-0.6,1.1-0.7c1-0.4,2.2-0.3,3.2,0.2c0.4,0.2,0.8,0.3,1.2,0.4
	c1,0.1,2-0.3,2.7-1.1c-0.1,0.6-0.5,1.2-1.1,1.5c-0.7,0.5-1.6,0.6-2.4,0.5c-0.8-0.3-1.6-0.5-2.5-0.6c-0.7,0-1.4,0.3-2,0.6
	C15.4,6.8,15.1,7,14.9,6.9z"/>
<path class="st0" d="M14.7,7.5c-0.2,0.4-3.3,7.7-3.3,7.7s0,0.1,0.5,0.2h7l0.5-1.1h-5.5c0,0-0.4-0.1-0.1-1.2c0.3-0.9,2.6-6,2.6-6
	C15.8,7.2,15.2,7.3,14.7,7.5z"/>
<polygon class="st0" points="16.1,9.6 15.6,11.1 19.9,11.2 20.8,9.7 "/>
<path class="st0" d="M8.2,6.5l-4.3,8.3h1.5L7,11.9c-0.2-0.3-0.4-0.6-0.5-0.9c-0.1-0.9,0.4-1.6,1.3-1.8c0.1,0,0.2,0,0.3,0
	c0.4,0,0.5,0.1,0.5,0.1l1.1-2.5L8.2,6.5z"/>
<circle class="st0" cx="8" cy="10.6" r="1.1"/>
<path class="st2" d="M11.1,16.9c2.2,2.2,5.6,2.8,8.4,1.5c-1.4,0.5-2.8,0.6-4.2,0.3C13.8,18.4,12.3,17.8,11.1,16.9z"/>
<path d="M27.3,4.9h10.9v11.6h-1v-0.6h-8.9v0.6h-1L27.3,4.9z M37.2,5.8h-8.9v9.2h8.9V5.8z M28.8,12.8h3.4v-2.5h-3V9.5h3V7.8H29V7h7.4
	v0.8h-3.2v1.7h3v0.8h-3v2.5h3.5v0.8h-7.8V12.8z M33.8,11.1l0.7-0.5c0.4,0.4,0.8,0.9,1.2,1.4L35,12.5C34.6,12,34.2,11.6,33.8,11.1
	L33.8,11.1z"/>
<path d="M39.4,15.2c2.3-0.6,4.4-1.8,6-3.5c-0.1-0.2-0.2-0.5-0.4-0.7c-1.4,1.4-3.2,2.4-5.1,2.9c-0.1-0.3-0.3-0.6-0.5-0.8
	c1.9-0.4,3.6-1.4,5-2.8c-0.1-0.1-0.3-0.3-0.5-0.4c-1.2,0.8-2.6,1.5-4,1.9c-0.2-0.3-0.3-0.6-0.6-0.9c1.7-0.3,3.4-1.1,4.7-2.2H41V7.9
	h8.9v0.9h-4.5c-0.2,0.2-0.4,0.4-0.7,0.6c0.6,0.5,1.1,1.1,1.5,1.8c1.2-0.6,2.3-1.2,3.5-2l0.6,0.8c-0.7,0.4-1.4,0.8-2.2,1.2
	c0.7,1.5,2,2.7,3.6,3.3c-0.3,0.3-0.5,0.6-0.8,1c-1.6-0.8-2.9-2.2-3.6-3.9L46.5,12c0.5,1.8,0.4,3-0.2,3.8c-0.5,0.4-1.1,0.6-1.7,0.5
	H43c0-0.3-0.1-0.7-0.2-1c0.6,0.1,1.1,0.1,1.7,0.1c0.9,0,1.3-0.5,1.3-1.6c0-0.4-0.1-0.8-0.2-1.2c-1.7,1.6-3.7,2.7-5.8,3.4
	C39.7,15.8,39.6,15.5,39.4,15.2z M39.7,5.8h5.6c-0.2-0.4-0.5-0.8-0.9-1.2l0.9-0.6c0.4,0.5,0.7,0.9,1,1.3l-0.6,0.4h5.4v2.1h-1V6.7
	h-9.4v1.2h-1V5.8z"/>
<path d="M61.4,5.1l1.1,0.2c-0.4,2.8-1.6,5.5-3.6,7.6c1.6,1.2,3.5,1.9,5.4,2.3c-0.4,0.4-0.6,0.8-0.9,1.1c-1.9-0.5-3.7-1.4-5.3-2.6
	c-1.7,1.2-3.5,2.2-5.5,2.8c-0.2-0.3-0.4-0.7-0.7-1c2-0.5,3.8-1.4,5.4-2.5c-1.9-2.1-3.2-4.7-3.7-7.4l1-0.4c0.5,2.6,1.7,5.1,3.5,7.1
	C60,10.2,61.1,7.7,61.4,5.1z M56.7,4.6l0.9-0.4c0.6,1,1.1,2,1.6,3l-1,0.5C57.7,6.6,57.2,5.5,56.7,4.6z"/>
<path d="M68.2,4.1l0.9,0.4c-0.2,0.3-0.4,0.6-0.6,0.9h6.7v0.8c-0.9,1-2,1.9-3.2,2.4c1.6,0.6,3.3,0.9,5,0.9c-0.3,0.4-0.5,0.7-0.7,1
	c-1.9-0.2-3.7-0.7-5.4-1.4c-1.9,0.8-3.9,1.3-6,1.7c-0.1-0.3-0.3-0.5-0.5-0.9c1.8-0.3,3.7-0.7,5.4-1.4c-0.9-0.5-1.6-1.2-2.3-2
	c-0.6,0.8-1.4,1.5-2.1,2.1C65.3,8.5,65,8.2,64.8,8C66.2,7,67.4,5.6,68.2,4.1z M65.6,11.4h3.6c0.1-0.4,0.1-0.8,0.2-1.3h1
	c-0.1,0.5-0.1,0.9-0.2,1.3h5c-0.1,1.5-0.2,2.5-0.2,3.1c0,1-0.9,1.8-1.9,1.8c-0.1,0-0.1,0-0.2,0c-0.5,0-1.2,0-2.2,0
	c0-0.3-0.1-0.6-0.2-1c1,0.1,1.7,0.1,2.4,0.1c0.6,0.1,1.1-0.4,1.2-1c0,0,0-0.1,0-0.1c0.1-0.6,0.1-1.3,0.2-2h-4.1
	c-0.4,2-2,3.4-4.6,4.3c-0.2-0.3-0.4-0.5-0.6-0.8c2.4-0.8,3.8-1.9,4.2-3.5h-3.4V11.4z M73.9,6.2h-5.5c0.7,0.8,1.6,1.5,2.6,2
	C72.1,7.7,73.1,7,73.9,6.2z"/>
<path d="M83.4,5.5L84.2,6c-0.5,0.8-1.1,1.5-1.7,2.2h0.9v0.8h-1.6c-0.3,0.4-0.7,0.7-1,1.1h2v0.7l-1.6,1.6v0.2l2.2-0.4
	c0,0.3,0,0.6,0,0.9l-2.2,0.4v1.4c0.1,1-0.4,1.5-1.4,1.5h-1.4c0-0.3,0-0.6-0.1-0.9c0.4,0,0.8,0.1,1.3,0.1c0.5,0,0.7-0.2,0.7-0.7v-1.1
	l-2.5,0.5l-0.2-0.9l2.7-0.4v-0.6l1.3-1.3h-1.7c-0.7,0.6-1.4,1.2-2.1,1.7c-0.2-0.2-0.4-0.5-0.6-0.7c0.5-0.3,0.9-0.7,1.3-1h-1v-0.8
	h1.9c0.4-0.3,0.8-0.7,1.1-1.1h-3.2V8.2h2.4V7h-2V6.2h1.9V4.5h0.9v1.7h1.5V7h-1.5v1.3h0.6C82.1,7.4,82.8,6.5,83.4,5.5z M83.1,10.5
	c1-1.9,1.8-4,2.2-6.1l0.9,0.2c-0.2,0.7-0.4,1.3-0.6,2h3.9v0.9h-1.2c0,2-0.6,3.9-1.6,5.5c0.8,1.1,1.8,1.9,3,2.4
	c-0.2,0.3-0.4,0.6-0.6,0.9c-1.2-0.6-2.2-1.5-3-2.5c-0.9,1.1-2,2-3.2,2.7c-0.1-0.2-0.3-0.5-0.6-0.8c1.3-0.6,2.4-1.5,3.3-2.7
	c-0.6-1-1-2.1-1.2-3.3c-0.2,0.4-0.4,0.8-0.6,1.2C83.6,10.8,83.3,10.7,83.1,10.5L83.1,10.5z M85.1,8.3c0.1,1.4,0.5,2.7,1.1,3.9
	c0.8-1.4,1.2-3,1.2-4.6h-2.1C85.2,7.8,85.2,8.1,85.1,8.3L85.1,8.3z"/>
<path d="M98.8,6.6c1.1,0.7,2.1,1.5,3.1,2.3l-0.7,0.7c-0.3-0.3-0.7-0.6-1.1-0.9c-3.2,0-5.7,0-7.4,0.1c-0.4,0-0.9,0.1-1.3,0.1l-0.3-1
	c0.5-0.1,1-0.2,1.4-0.5c0.5-0.3,1-0.6,1.5-1h-3.8v-1H96c-0.2-0.3-0.4-0.6-0.6-1l0.9-0.4c0.4,0.6,0.7,1,0.8,1.4h5.1v0.9h-6.8
	c-0.8,0.6-1.6,1.1-2.2,1.6c1.9,0,3.9,0,5.9-0.1l-0.9-0.6L98.8,6.6z M91.8,9.7h8.8v5.1c0,1-0.6,1.5-1.7,1.5h-1.4l-0.2-1
	c0.5,0.1,1,0.1,1.6,0.1c0.6,0,0.8-0.2,0.9-0.7v-0.4h-6.9v2.1h-0.9L91.8,9.7z M99.7,10.5h-7v1.1h6.9L99.7,10.5z M92.8,13.5h6.9v-1.1
	h-6.9L92.8,13.5z"/>
<path d="M104,5c3.5,0,7-0.2,10.5-0.5l0.3,1c-3.1,0.2-6.4,0.4-9.8,0.4v3.8c0,3.2-0.5,5.5-1.6,6.8c-0.2-0.3-0.5-0.6-0.7-0.8
	c0.9-1.1,1.3-3.1,1.3-6L104,5z M110.5,11.1c0,0.8,0,1.6-0.2,2.3c1.5,0.7,3.1,1.4,4.7,2.2l-0.5,0.9c-1.6-0.9-3.1-1.6-4.4-2.3
	c-0.7,1.1-2.3,1.9-4.8,2.3c-0.1-0.3-0.3-0.6-0.5-0.9c2.6-0.4,4.1-1,4.5-1.9c0.3-0.8,0.4-1.7,0.3-2.6L110.5,11.1z M106.2,9.6h3.3V8.2
	h-4.1V7.3h4.1V5.9h1v1.4h4.2v0.9h-4.2v1.4h3.3V14h-1v-3.5h-5.7V14h-1L106.2,9.6z"/>
<path d="M115.5,15.3h5.7v-0.7h-4.7V14h4.7v-0.7h-3.4v0.3h-0.8V9.8h9.4v3.8h-0.8v-0.3H122V14h4.7v0.6H122v0.7h5.7V16h-12.2V15.3z
	 M115.6,8.5h12.1v0.7h-12.1L115.6,8.5z M117,4.7h9.2v3.6h-0.8V7.9h-7.5v0.4H117L117,4.7z M117.8,11.2h3.4v-0.8h-3.4V11.2z
	 M117.8,12.6h3.4v-0.8h-3.4V12.6z M125.4,5.4h-7.5V6h7.5V5.4z M117.9,7.3h7.5V6.6h-7.5V7.3z M125.5,10.4H122v0.8h3.4V10.4z
	 M122,12.6h3.4v-0.8H122V12.6z"/>
<path d="M128.2,15.1h1.5v-4h9.3v4h1.5V16h-12.2L128.2,15.1z M129.2,5h0.9v5.1h-0.9V5z M130.6,15.1h1.9V12h-1.9L130.6,15.1z
	 M132.8,4.3v6.4h-0.9V4.3H132.8z M133,8.8c1.1-1.4,1.9-2.9,2.5-4.6l0.9,0.3C136.3,5,136,5.5,135.8,6h4.5v0.9h-4.9
	c-0.4,0.8-1,1.6-1.6,2.4C133.6,9.1,133.3,9,133,8.8L133,8.8z M133.4,15.1h1.9V12h-1.9V15.1z M135.8,8.2l0.6-0.7
	c0.9,0.7,1.8,1.4,2.7,2.1l-0.7,0.8C137.5,9.7,136.7,8.9,135.8,8.2L135.8,8.2z M138,12h-1.9v3.1h1.9V12z"/>
<path d="M141.4,7.7c0.7,0.6,1.3,1.1,2,1.7c-0.2,0.2-0.5,0.5-0.7,0.8c-0.7-0.7-1.4-1.3-1.9-1.8L141.4,7.7z M142.4,11.3
	c0.3,0.2,0.7,0.3,1,0.5c-0.6,2.1-1,3.6-1.2,4.6l-1-0.5C141.7,14.4,142.1,12.9,142.4,11.3L142.4,11.3z M141.9,4.5
	c0.5,0.4,1.2,1,1.9,1.8L143.1,7c-0.6-0.7-1.2-1.3-1.8-1.8L141.9,4.5z M145.9,6.9h0.9V10c0,1-0.1,2-0.4,3c1.1,0.8,2,1.6,2.8,2.2
	l-0.7,0.8c-0.7-0.6-1.5-1.3-2.5-2.2c-0.6,1.1-1.6,2.1-2.8,2.7c-0.2-0.3-0.4-0.5-0.6-0.8c1-0.5,1.9-1.4,2.5-2.4
	c0.5-1.1,0.7-2.2,0.6-3.4L145.9,6.9z M144,5h4.7v7.8h-0.9v-7h-2.9v7H144L144,5z M151.7,4.3h0.9v10.6c0.1,0.7-0.3,1.3-1,1.4
	c-0.1,0-0.2,0-0.3,0h-1.4c0-0.3-0.1-0.7-0.2-1c0.4,0.1,0.9,0.1,1.4,0.1c0.3,0.1,0.7-0.2,0.7-0.5c0-0.1,0-0.1,0-0.2L151.7,4.3z
	 M150.6,13.5h-0.9V5.3h0.9V13.5z"/>
<path d="M154.2,6.7h1v9.7h-1V6.7z M154.8,4.9l0.7-0.6c0.5,0.4,1.1,1,1.8,1.8l-0.8,0.7C155.8,5.9,155.2,5.3,154.8,4.9L154.8,4.9z
	 M157,8.2h5.3v5h-4.4v0.7H157V8.2z M161.4,9.1h-3.5v3.1h3.5V9.1z M158.1,6V5h7.1v9.6c0,1.2-0.5,1.8-1.6,1.8h-2c0-0.2-0.1-0.6-0.2-1
	c0.7,0,1.3,0.1,2,0.1s1-0.3,0.9-1V6L158.1,6z"/>
<path d="M166.3,8.9h3.9c0.3-0.4,0.5-0.8,0.7-1.2h-3.9V6.8h4.3c0.3-0.8,0.6-1.7,0.7-2.6l1,0.2c-0.2,0.9-0.4,1.6-0.7,2.4h5.4v0.9H172
	c-0.2,0.4-0.4,0.8-0.6,1.2h7v0.9H175c1,1.1,2.2,1.8,3.6,2c-0.2,0.3-0.5,0.6-0.7,1c-0.9-0.3-1.8-0.8-2.5-1.4c0,0.5,0,1-0.1,1.5
	c0.1,0.8-0.5,1.5-1.3,1.5c-0.1,0-0.2,0-0.2,0c-0.4,0-0.9,0-1.5,0c0-0.3-0.1-0.7-0.2-1c0.5,0.1,1,0.1,1.4,0.1c0.6,0,0.9-0.2,0.9-0.7
	c0-0.2,0-0.5,0-0.7h-4.2v2.5c-0.1,0.4,0.2,0.7,0.6,0.8c0.1,0,0.1,0,0.2,0h4c0.7,0,1.1-0.2,1.2-0.6c0.1-0.4,0.2-0.9,0.3-1.3
	c0.3,0.1,0.7,0.3,1,0.4c-0.1,0.5-0.2,1-0.3,1.3c-0.2,0.7-0.8,1.1-1.8,1.1h-4.4c-0.8,0.1-1.5-0.4-1.6-1.2c0-0.1,0-0.3,0-0.4v-3.1
	c-0.7,0.6-1.5,1.1-2.4,1.6c-0.2-0.3-0.5-0.5-0.7-0.8c1.3-0.6,2.5-1.4,3.5-2.5h-3.2L166.3,8.9z M167.9,5l0.7-0.6
	c0.6,0.6,1.1,1.1,1.6,1.6l-0.8,0.7C168.9,6.1,168.4,5.5,167.9,5L167.9,5z M169.5,11.2h5.6c-0.5-0.4-0.9-0.9-1.2-1.4h-3.1
	C170.5,10.3,170,10.7,169.5,11.2L169.5,11.2z M174.4,6.2c0.5-0.6,1-1.2,1.4-1.8l0.9,0.5c-0.5,0.6-1,1.2-1.6,1.8L174.4,6.2z"/>
<path d="M182.6,11.9c0,0.4,0,0.7,0.1,1.1c-0.9,0.6-1.6,1.2-2.2,1.8l-0.6-0.8c0.3-0.3,0.4-0.7,0.4-1.1V9H179V8.2h2.3V13
	C181.6,12.7,182.1,12.3,182.6,11.9z M180.5,4.5c0.6,0.5,1.2,1.2,1.9,2l-0.8,0.7c-0.7-0.8-1.2-1.5-1.8-2L180.5,4.5z M183.9,5.9v5.1
	c0.1,2-0.6,4-2,5.5c-0.2-0.3-0.4-0.5-0.6-0.8c1.2-1.2,1.8-2.9,1.7-4.6V5h7.6V15c0,0.9-0.4,1.4-1.3,1.4h-2c0-0.3-0.1-0.7-0.2-1
	c0.9,0.1,1.5,0.1,1.9,0.1s0.6-0.2,0.6-0.7V5.9H183.9z M184.3,9.3h2.1V8.1h-1.7V7.3h1.7V6.2h0.9v1.2h1.7v0.8h-1.7v1.2h2.1v0.8h-5.1
	L184.3,9.3z M184.9,11.1h3.8v3.2h-3v0.6h-0.9L184.9,11.1z M187.8,11.9h-2.1v1.6h2.1L187.8,11.9z"/>
<path d="M192.1,5.6h5.3V4.2h0.9v1.3h5.4v0.8H199c1.5,1.1,3.2,1.9,5,2.3l-0.6,0.9c-0.4-0.2-0.9-0.3-1.3-0.5v5.4h-0.9v-0.6h-6.7v0.6
	h-0.9V9.1c-0.4,0.2-0.9,0.4-1.3,0.6c-0.2-0.3-0.4-0.5-0.6-0.8c1.8-0.5,3.5-1.3,4.9-2.5h-4.5L192.1,5.6z M191.8,15.1h12.1V16h-12.1
	V15.1z M197.3,8.7V6.6c-1.1,1-2.3,1.8-3.6,2.4h8.4c-1.4-0.6-2.7-1.4-3.9-2.4v2.1H197.3z M201.2,9.9h-6.7V11h6.7V9.9z M194.5,13h6.7
	v-1.1h-6.7V13z"/>
<path d="M207.9,12.8l0.8,0.6c-1.1,1-2.2,1.9-3.3,2.7c-0.2-0.2-0.4-0.5-0.7-0.8C205.8,14.6,206.9,13.7,207.9,12.8z M213.5,9.3
	c1.1,0.9,2.1,1.8,3.2,2.8l-0.8,0.8l-1-1l-3.4,0.2v2.8c0,0.9-0.5,1.4-1.5,1.4h-1.6c0-0.3-0.1-0.6-0.2-1c0.7,0.1,1.2,0.1,1.6,0.1
	c0.3,0,0.6-0.2,0.7-0.5c0-0.1,0-0.1,0-0.2v-2.6l-3.1,0.2c-0.5,0-0.9,0.1-1.4,0.2l-0.4-1.1c0.5-0.1,1.1-0.3,1.6-0.5
	c1.3-0.6,2.4-1.2,3.5-1.9l-3.6,0.3c-0.3,0-0.7,0.1-1,0.1l-0.4-1c0.4-0.1,0.8-0.2,1.1-0.4C208,7.4,209,6.7,210,6
	c-1.4,0.1-2.9,0.2-4.3,0.2c-0.1-0.3-0.1-0.6-0.2-0.9c3.9-0.1,7.4-0.4,10.5-0.7l0.2,0.9c-1.8,0.1-3.6,0.3-5.5,0.4l0.5,0.3
	c-1.3,0.9-2.5,1.6-3.6,2.2c1.9-0.1,3.4-0.2,4.6-0.3c0.8-0.5,1.6-1.1,2.3-1.6l0.8,0.7c-2.3,1.6-4.7,3-7.2,4.2c1.6-0.1,3.6-0.1,6-0.3
	c-0.4-0.4-0.8-0.8-1.2-1.1L213.5,9.3z M212.7,13.4l0.6-0.7c1,0.7,2.2,1.5,3.4,2.5L216,16C214.9,15.1,213.8,14.2,212.7,13.4z"/>
<path d="M217.4,14.4c1.4-0.3,2.8-0.6,4.2-0.9c0,0.4,0,0.7,0,0.9c-1.5,0.3-2.8,0.6-3.9,0.9L217.4,14.4z M219,11.8l2.5-0.4
	c0,0.3-0.1,0.6-0.1,0.9c-1,0.1-2.2,0.3-3.6,0.5l-0.2-0.9c0.7-0.8,1.3-1.7,1.8-2.6l-1.9,0.1l-0.2-0.8c1-1.4,1.7-2.8,2.4-4.4l0.9,0.4
	c-0.8,1.6-1.5,2.9-2.2,3.9h1.5c0.2-0.4,0.5-0.9,0.8-1.4l0.9,0.4C220.9,9,220,10.4,219,11.8z M227.4,7.6c0.7,0.9,1.4,2,2.1,3.2
	c-0.3,0.2-0.6,0.4-0.9,0.6l-0.6-1l-1.2,0.1v4.2c0,0.5,0.2,0.8,0.6,0.8h0.6c0.4,0,0.7-0.2,0.7-0.6c0,0,0,0,0,0
	c0.1-0.5,0.1-1.1,0.1-1.6c0.3,0.1,0.6,0.2,1,0.4c-0.1,0.7-0.1,1.3-0.2,1.7c0,0.6-0.6,1.1-1.2,1.1c0,0,0,0-0.1,0h-1.1
	c-0.9,0-1.4-0.5-1.4-1.5v-4.3l-1.4,0.1c0,1.3-0.2,2.6-0.7,3.8c-0.6,1-1.5,1.8-2.6,2.3c-0.2-0.3-0.4-0.5-0.6-0.8c1-0.3,1.9-1,2.4-1.9
	c0.5-1,0.7-2.1,0.6-3.2h-0.5c-0.3,0-0.7,0.1-1,0.2l-0.4-1c0.3-0.1,0.6-0.3,0.9-0.6c0.6-0.8,1.2-1.6,1.8-2.4h-2.7V5.9h4
	c-0.3-0.5-0.6-0.9-0.9-1.3l0.8-0.5c0.3,0.4,0.7,0.8,1.1,1.4l-0.6,0.4h3.8v0.9h-5l0.7,0.3c-0.7,0.9-1.3,1.8-2,2.6l4.3-0.2
	c-0.3-0.5-0.6-1-0.9-1.4L227.4,7.6z"/>
</svg>
